# xmcd
#
# Track frame offsets:
#	150
#	16114
#	29985
#	43590
#	55030
#	70588
#	84676
#	98215
#	118767
#	132188
#	151555
#	167862
#
# Disc length: 2512 seconds
#
# Revision: 1
# Processed by: cddbd v1.5.2PL0 Copyright (c) Steve Scherf et al.
# Submitted via: audiograbber 1.83.01
#
DISCID=9509ce0c
DTITLE=Terri Clark - Classic
DYEAR=2012
DGENRE=Country
TTITLE0=It Wasn't God Who Made Honky Tonk Angels
TTITLE1=Love Is A Rose
TTITLE2=How Blue (feat. Reba)
TTITLE3=Don't Come Home A Drinkin' (With Lovin' On Your Mind)
TTITLE4=Gentle On My Mind
TTITLE5=Golden Ring (feat. Dierks Bentley)
TTITLE6=Two More Bottles Of Wine
TTITLE7=Leavin' On Your Mind (feat. Jann Arden)
TTITLE8=Swinging Doors
TTITLE9=Delta Dawn (feat. Tanya Tucker)
TTITLE10=I'm Movin' On (feat. Dean Brody)
TTITLE11=Leavin' On Your Mind (Acoustic Version) [Bonus]
EXTD=
EXTT0=
EXTT1=
EXTT2=
EXTT3=
EXTT4=
EXTT5=
EXTT6=
EXTT7=
EXTT8=
EXTT9=
EXTT10=
EXTT11=
PLAYORDER=
